<?xml version="1.0" encoding="iso-8859-1"?>
<!-- Uploaded to: SVG Repo, www.svgrepo.com, Generator: SVG Repo Mixer Tools -->
<svg fill="#000000" height="800px" width="800px" version="1.1" id="Layer_1" xmlns="http://www.w3.org/2000/svg" xmlns:xlink="http://www.w3.org/1999/xlink" 
	 viewBox="0 0 511.999 511.999" xml:space="preserve">
<g>
	<g>
		<path d="M463.815,48.974c-64.375-64.376-169.121-64.375-233.498,0l-37.391,37.389c-44.639,44.641-59.504,111.78-39.07,171.021
			l-29.159,29.159c-12.219,12.219-14.107,30.914-5.669,45.136l-45.07,45.07c-19.146-9.532-43.063-6.345-59.001,9.591
			c-19.943,19.944-19.943,52.395,0,72.339c6.743,6.743,15.122,11.354,24.129,13.536c2.182,9.009,6.795,17.388,13.54,24.132
			c9.971,9.971,23.069,14.959,36.169,14.959c13.099,0,26.199-4.986,36.17-14.959c15.527-15.527,18.96-38.633,10.311-57.519
			l45.301-45.301c6.005,3.773,12.86,5.671,19.72,5.671c9.494,0,18.987-3.614,26.215-10.841l29.269-29.27
			c17.327,5.956,35.44,8.986,53.721,8.984c9.651,0,19.354-0.842,29.004-2.535c33.516-5.881,63.918-21.674,87.918-45.676
			l37.389-37.389c31.072-31.072,48.185-72.534,48.185-116.749C512,121.509,494.887,80.046,463.815,48.974z M93.572,422.279
			c-8.044,8.044-8.044,21.084,0,29.128c0.875,0.875,1.817,1.635,2.796,2.319c3.335,3.909,3.164,9.802-0.53,13.495
			c-3.883,3.883-10.202,3.883-14.084,0c-2.321-2.32-3.348-5.642-2.748-8.883c1.376-7.433-1.44-14.656-6.757-19.284
			c-4.629-5.313-11.85-8.127-19.281-6.754c-3.241,0.6-6.562-0.427-8.883-2.748c-3.883-3.883-3.883-10.201,0-14.084
			c3.884-3.885,10.202-3.883,14.084,0c0.091,0.091,0.19,0.165,0.28,0.254c0.736,1.097,1.582,2.142,2.551,3.111
			c4.022,4.022,9.293,6.033,14.563,6.033s10.543-2.01,14.563-6.033l57.214-57.216l3.445,3.445L93.572,422.279z M434.688,253.346
			L397.3,290.735c-35.95,35.949-91.492,46.177-138.205,25.449c-0.066-0.029-0.133-0.048-0.199-0.077
			c-0.439-0.189-0.886-0.356-1.336-0.513c-0.21-0.074-0.417-0.154-0.628-0.22c-0.404-0.128-0.812-0.232-1.222-0.334
			c-0.265-0.066-0.529-0.139-0.794-0.194c-0.349-0.071-0.699-0.122-1.05-0.176c-0.323-0.049-0.644-0.106-0.967-0.14
			c-0.313-0.033-0.626-0.044-0.941-0.063c-0.352-0.021-0.702-0.048-1.053-0.049c-0.324-0.003-0.648,0.018-0.972,0.03
			c-0.33,0.014-0.659,0.018-0.986,0.047c-0.386,0.033-0.769,0.093-1.153,0.148c-0.257,0.037-0.515,0.065-0.77,0.111
			c-0.463,0.085-0.92,0.198-1.377,0.314c-0.17,0.044-0.343,0.077-0.514,0.125c-0.501,0.141-0.995,0.313-1.487,0.493
			c-0.124,0.045-0.25,0.082-0.372,0.13c-0.479,0.187-0.949,0.401-1.416,0.625c-0.136,0.065-0.275,0.122-0.409,0.19
			c-0.411,0.207-0.81,0.441-1.208,0.678c-0.19,0.113-0.382,0.217-0.567,0.335c-0.323,0.206-0.636,0.434-0.95,0.659
			c-0.253,0.181-0.507,0.358-0.751,0.552c-0.246,0.195-0.483,0.406-0.722,0.614c-0.291,0.251-0.579,0.505-0.857,0.774
			c-0.071,0.069-0.148,0.128-0.218,0.198l-35.878,35.876l-43.56-43.56l35.875-35.875c0.07-0.07,0.129-0.148,0.198-0.218
			c0.187-0.195,0.362-0.397,0.541-0.599c5.994-6.664,6.879-16.275,2.649-23.814c-19.896-46.424-9.555-101.149,26.055-136.76
			l37.389-37.389c23.292-23.292,54.409-36.119,87.621-36.118c33.212,0,64.331,12.827,87.621,36.119s36.119,54.409,36.119,87.621
			C470.807,198.935,457.98,230.054,434.688,253.346z"/>
	</g>
</g>
</svg>